<svg width="13" height="16" viewBox="0 0 13 16" fill="none" xmlns="http://www.w3.org/2000/svg">
<path d="M11.2474 2.28546H11.2033L11.2172 2.1327C11.2175 2.12936 11.2178 2.12603 11.218 2.12269C11.2615 1.50372 11.0641 0.891266 10.6901 0.484367C10.4029 0.171997 10.0313 0 9.64369 0C9.64351 0 9.64332 0 9.64317 0L2.59178 0.00286922C2.20405 0.00302515 1.83229 0.175272 1.54497 0.48786C1.17088 0.894915 0.97329 1.50737 1.01643 2.12621C1.01668 2.12955 1.01696 2.13289 1.01723 2.13623L1.03114 2.28907C0.455304 2.33333 0 2.82197 0 3.41671V4.11009C0 4.73386 0.500723 5.24134 1.1162 5.24134H1.2999L2.24067 15.5752C2.26258 15.8159 2.46183 16 2.70031 16H2.70053L9.5282 15.997C9.76653 15.9969 9.9656 15.8129 9.9876 15.5724L10.9328 5.24137H11.2474C11.8629 5.24137 12.3636 4.7339 12.3636 4.11012V3.41674C12.3636 2.79293 11.8629 2.28546 11.2474 2.28546ZM2.22048 1.12554C2.29889 1.04025 2.42702 0.938515 2.59212 0.938452L9.64354 0.935614H9.64369C9.80854 0.935614 9.93643 1.03703 10.0147 1.12214C10.2164 1.34151 10.3219 1.68866 10.2975 2.05158L10.2762 2.28546H1.95793L1.93701 2.05558C1.91279 1.69259 2.01862 1.34523 2.22048 1.12554ZM9.43026 11.5309H2.79961L2.43296 7.50366H9.79872L9.43026 11.5309ZM3.12127 15.0642L2.88479 12.4666H9.34468L9.10724 15.0616L3.12127 15.0642ZM9.88433 6.56804H2.34779L2.22701 5.24137H10.0057L9.88433 6.56804ZM11.4405 4.11012C11.4405 4.218 11.3539 4.30576 11.2474 4.30576H1.11623C1.00979 4.30576 0.923193 4.218 0.923193 4.11012V3.41674C0.923193 3.30886 1.00979 3.2211 1.11623 3.2211H11.2474C11.3539 3.2211 11.4404 3.30886 11.4404 3.41674V4.11012H11.4405Z" fill="##FFFFFF"/>
</svg>
